<svg id="Capa_1" enable-background="new 0 0 512 512" fill="#2a7d2f" height="512" viewBox="0 0 512 512" width="512" xmlns="http://www.w3.org/2000/svg"><g><path d="m453.168 191.865 11.812-74.585c1.296-8.182-4.287-15.866-12.469-17.162l-74.664-11.825-34.317-67.355c-3.742-7.344-12.707-10.294-20.081-6.603l-67.449 33.774-67.447-33.773c-7.371-3.691-16.339-.742-20.081 6.603l-34.319 67.355-74.663 11.824c-8.182 1.296-13.765 8.979-12.469 17.162l11.812 74.583-54.35 53.443c-2.868 2.82-4.483 6.674-4.483 10.696s1.615 7.875 4.483 10.696l54.351 53.443-11.812 74.583c-1.296 8.183 4.287 15.866 12.469 17.162l74.662 11.825 34.319 67.355c1.807 3.544 4.946 6.227 8.73 7.456 3.681 1.196 7.804.954 11.444-.901l67.355-34.32 67.354 34.32c3.543 1.805 7.658 2.13 11.445.9 3.783-1.229 6.924-3.911 8.729-7.456l34.317-67.355 74.664-11.825c8.182-1.296 13.765-8.979 12.469-17.162l-11.812-74.586 54.349-53.441c2.868-2.82 4.483-6.673 4.483-10.696 0-4.022-1.615-7.875-4.483-10.696zm-26.54 112.297c-3.456 3.398-5.057 8.255-4.299 13.042l10.674 67.398-67.397 10.674c-4.742.751-8.839 3.728-11.019 8.006l-30.978 60.799-60.798-30.979c-4.277-2.181-9.342-2.181-13.619 0l-60.8 30.98-30.979-60.8c-2.18-4.278-6.276-7.254-11.019-8.005l-67.396-10.674 10.674-67.396c.758-4.786-.843-9.644-4.299-13.042l-48.979-48.162 48.979-48.162c3.456-3.398 5.057-8.256 4.299-13.042l-10.674-67.396 67.396-10.674c4.742-.751 8.839-3.727 11.019-8.006l31.026-60.893 60.845 30.467c4.225 2.116 9.203 2.117 13.432 0l60.846-30.467 31.025 60.893c2.18 4.278 6.276 7.255 11.019 8.006l67.397 10.674-10.674 67.397c-.758 4.786.843 9.644 4.299 13.042l48.978 48.16z"/><path d="m196 241.002c24.813 0 45-20.187 45-45s-20.187-45-45-45-45 20.187-45 45 20.187 45 45 45zm0-60c8.271 0 15 6.729 15 15s-6.729 15-15 15-15-6.729-15-15 6.729-15 15-15z"/><path d="m316 271.002c-24.813 0-45 20.187-45 45s20.187 45 45 45 45-20.187 45-45-20.187-45-45-45zm0 60c-8.271 0-15-6.729-15-15s6.729-15 15-15 15 6.729 15 15-6.729 15-15 15z"/><path d="m335.394 155.395-180 180c-5.858 5.858-5.858 15.355 0 21.213 5.857 5.858 15.355 5.859 21.213 0l180-180c5.858-5.858 5.858-15.355 0-21.213s-15.356-5.858-21.213 0z"/></g></svg>