<?xml version="1.0" encoding="iso-8859-1"?>
<!-- Generator: Adobe Illustrator 19.0.0, SVG Export Plug-In . SVG Version: 6.00 Build 0)  -->
<svg version="1.1" fill="#fff" id="Capa_1" xmlns="http://www.w3.org/2000/svg" xmlns:xlink="http://www.w3.org/1999/xlink" x="0px" y="0px"
	 viewBox="0 0 508 508" style="enable-background:new 0 0 508 508;" xml:space="preserve">
<g>
	<g>
		<path d="M507.9,197.175c-0.1-13.6-6.4-26-17.4-34.1l-63.7-46.6v-16c0-23.3-19-42.3-42.3-42.3h-37.4l-68.2-49.9
			c-14.9-11-34.9-11-49.8,0l-68.3,49.9h-37.4c-23.3,0-42.3,19-42.3,42.3v16l-63.8,46.6c-10.9,8-17.2,20.3-17.3,33.8
			c0,0.1,0,0.3,0,0.4l1,296.6c0,7.8,6.3,14.1,14.1,14.1h478.8c7.8,0,14.1-6.3,14.1-14.1v-296.6
			C507.9,197.275,507.9,197.275,507.9,197.175z M245.7,31.075c4.9-3.6,11.5-3.6,16.4,0l37.1,27.2h-90.7L245.7,31.075z
			 M109.1,100.575h0.1c0-7.8,6.3-14.1,14.1-14.1h261.1c7.8,0,14.1,6.3,14.1,14.1v163.3l-136.4,99.8c-4.9,3.6-11.5,3.6-16.5,0
			l-136.5-99.8V100.575z M33.9,185.875l47.1-34.4v91.7l-47.1-34.5c-3.6-2.7-5.7-6.8-5.7-11.3
			C28.1,192.775,30.2,188.575,33.9,185.875z M28.3,239.575l142.1,103.9L29,462.875L28.3,239.575z M52.6,479.875l141.2-119.2
			l35.3,25.8c7.4,5.4,16.1,8.1,24.8,8.1s17.4-2.7,24.9-8.1l35.2-25.8l141.2,119.2H52.6z M479.7,463.575l-142.2-120.1l142.2-104
			V463.575z M473.9,208.675l-47.1,34.4v-91.6l47.1,34.4c3.7,2.7,5.8,6.9,5.8,11.4C479.7,201.875,477.6,205.975,473.9,208.675z"/>
	</g>
</g>
<g>
	<g>
		<path d="M356.3,146.175H151.6c-7.8,0-14.1,6.3-14.1,14.1c-0.1,7.8,6.3,14.1,14.1,14.1h204.7c7.8,0,14.1-6.3,14.1-14.1
			C370.4,152.475,364.1,146.175,356.3,146.175z"/>
	</g>
</g>
<g>
	<g>
		<path d="M356.3,220.275H151.6c-7.8,0-14.1,6.3-14.1,14.1s6.3,14.1,14.1,14.1h204.7c7.7,0,14.1-6.3,14.1-14.1
			S364.1,220.275,356.3,220.275z"/>
	</g>
</g>
<g>
</g>
<g>
</g>
<g>
</g>
<g>
</g>
<g>
</g>
<g>
</g>
<g>
</g>
<g>
</g>
<g>
</g>
<g>
</g>
<g>
</g>
<g>
</g>
<g>
</g>
<g>
</g>
<g>
</g>
</svg>
